Coordinates
version=1
nRows=19
nColumns=33
inDegrees=yes

Units are S.I. units (second, meters, Newtons, ...)
Angles are in degrees.

endheader
time	ground_thorax_rot_x	ground_thorax_rot_y	ground_thorax_rot_z	ground_thorax_tx	ground_thorax_ty	ground_thorax_tz	clav_prot_r	clav_elev_r	scapula_abduction_r	scapula_elevation_r	scapula_upward_rot_r	scapula_winging_r	shoulder_elv_r	plane_of_elev_r	axial_rot_r	elbow_flexion_r	pro_sup_r	wrist_flex_r	wrist_dev_r	clav_prot_l	clav_elev_l	scapula_abduction_l	scapula_elevation_l	scapula_upward_rot_l	scapula_winging_l	shoulder_elv_l	plane_of_elev_l	axial_rot_l	elbow_flexion_l	pro_sup_l	wrist_flex_l	wrist_dev_l
      4.33000000	      1.42976007	      6.22645225	     11.74789553	     -0.11905140	      1.03304374	      0.03197691	      1.40600156	     10.65472754	     11.37240784	      7.17217184	     21.41322784	     -8.33923831	     17.21155782	    -73.26134130	     55.77756182	     59.78612988	    -23.34450118	     70.00000021	    -24.99999983	     14.28754611	     -5.52799943	    -22.62845507	    -20.78699659	    -45.00000000	      2.10309961	     64.32928299	    -34.75532964	     -3.44393713	     70.83642118	     20.08357061	     -0.45967021	    -24.99999983
      4.34000000	      1.33524775	      6.19237718	     11.74160110	     -0.11873814	      1.03298688	      0.03218398	      1.38163961	     10.73838550	     11.50791387	      7.15417246	     21.66807996	     -8.42016047	     17.29983778	    -73.00259839	     55.76725303	     60.25343078	    -23.32156585	     70.00000021	    -24.99999983	     14.37552027	     -5.45460446	    -22.68101490	    -20.71318647	    -44.69296155	      2.17663724	     64.56536587	    -34.43642339	     -3.32381678	     71.22667865	     20.00118139	     -0.41998585	    -24.99999983
      4.35000000	      1.30975264	      6.19061978	     11.68570397	     -0.11842294	      1.03284138	      0.03238644	      1.35143877	     10.82787310	     11.64378460	      7.13729677	     21.93936810	     -8.50387029	     17.52405517	    -72.80083993	     55.64069325	     60.83437865	    -23.33231701	     70.00000021	    -24.99999983	     14.48000704	     -5.43592667	    -22.75274304	    -20.57347776	    -44.35104840	      2.26831742	     64.80780705	    -34.02824397	     -3.27002423	     71.56142689	     19.88001684	     -0.28202570	    -24.99999983
      4.36000000	      1.32647518	      6.28466502	     11.75972578	     -0.11815498	      1.03289797	      0.03254750	      1.32533580	     10.48922740	     11.60215482	      6.89648129	     21.78536014	     -8.45536026	     19.18575351	    -73.01858842	     56.17380887	     62.00991732	    -23.49490617	     70.00000021	    -24.99999983	     14.74667912	     -5.68131446	    -23.12845428	    -20.21332216	    -44.09394358	      2.51669397	     64.99579919	    -33.71847874	     -2.87401804	     71.87670716	     17.82792012	      3.75909457	    -24.99999983
      4.37000000	      1.33010806	      6.27130416	     11.66472980	     -0.11784575	      1.03279400	      0.03273936	      1.29132729	     10.56704107	     11.76748615	      6.85704458	     22.09310023	     -8.55237966	     19.44674123	    -72.71636922	     56.00159513	     62.53619952	    -23.54087188	     70.00000021	    -24.99999983	     14.85474748	     -5.71983143	    -23.19153420	    -19.99330407	    -43.69662562	      2.62014393	     65.27690180	    -33.17690945	     -2.85376352	     72.01190125	     17.77295303	      3.92161892	    -24.99999983
      4.38000000	      1.35918003	      6.26844490	     11.58259891	     -0.11747923	      1.03263444	      0.03298274	      1.26977848	     10.62629233	     11.95043530	      6.80746340	     22.38343507	     -8.64913355	     19.79353254	    -72.50952988	     55.75230868	     63.25296307	    -23.65286104	     70.00000021	    -24.99999983	     14.97156883	     -5.82884857	    -23.26650974	    -19.70122505	    -43.28500571	      2.73521668	     65.56831660	    -32.61821686	     -2.82483899	     72.03700670	     17.64873527	      4.27936692	    -24.99999983
      4.39000000	      1.40552589	      6.21074332	     11.73967289	     -0.11730042	      1.03262169	      0.03308083	      1.55258733	     10.35405790	     12.56659998	      6.58029702	     22.33728624	     -8.79241761	     20.81948096	    -72.74445687	     56.02994813	     64.35850282	    -24.62693645	     69.90478027	    -24.99999983	     15.11493449	     -6.16642902	    -23.43544983	    -19.27716114	    -43.05575610	      2.87423604	     65.90563677	    -32.22780265	     -2.42148308	     72.10418435	     16.28357890	      8.48071414	    -24.59183957
      4.40000000	      1.38418567	      6.16823747	     11.57592275	     -0.11688187	      1.03251070	      0.03318945	      1.52788869	     10.37836820	     12.78461892	      6.49047279	     22.65926645	     -8.90091203	     21.11026887	    -72.28958729	     55.78267587	     64.88518746	    -24.68625818	     69.79178889	    -24.99999983	     15.21774785	     -6.28886639	    -23.47076449	    -18.94429196	    -42.57947745	      2.97750238	     66.21291972	    -31.55916327	     -2.31314654	     71.99578354	     16.24559130	      8.72837257	    -24.37815730
      4.41000000	      1.42834843	      6.03590916	     11.63210953	     -0.11651301	      1.03206219	      0.03335516	      1.62874530	     10.47291898	     13.21718575	      6.45981715	     22.97889599	     -9.07073691	     21.96106120	    -72.32219384	     55.65748511	     66.37239929	    -25.08251888	     66.33066646	    -24.99999983	     15.26892203	     -6.40361118	    -23.47300081	    -18.70405467	    -42.28798475	      3.03099823	     66.51231954	    -30.82759191	     -2.00662462	     72.12378191	     15.51504507	     12.02370323	    -21.76275884
      4.42000000	      1.43639488	      5.91745274	     11.67285241	     -0.11634848	      1.03220123	      0.03340122	      1.80264438	     10.28158595	     13.63787680	      6.28565937	     22.99303243	     -9.17532512	     23.30074305	    -72.27669851	     55.16825791	     67.49897129	    -22.78387075	     62.29215128	    -24.99999983	     15.39534331	     -6.84652442	    -23.64548054	    -18.24304958	    -42.18683773	      3.14654666	     67.03426301	    -30.13034965	     -1.64600386	     72.02556840	     14.76950466	     15.02083260	    -19.34603214
      4.43000000	      1.37472186	      5.87321520	     11.57263920	     -0.11595903	      1.03215243	      0.03333163	      1.83530608	     10.21129217	     13.99105034	      6.12037797	     23.30005476	     -9.31259733	     23.58061531	    -71.75256132	     54.88968535	     67.85341253	    -22.78617675	     61.93902213	    -24.99999983	     15.56047441	     -7.08171920	    -23.78257720	    -17.79116756	    -41.68660854	      3.29944900	     67.34191715	    -29.39763942	     -1.64657302	     71.49375980	     14.77450332	     15.12581417	    -19.14830547
      4.44000000	      1.34261614	      5.69831014	     11.70051599	     -0.11574575	      1.03190426	      0.03327046	      1.97935418	     10.23436758	     14.64594085	      5.98604336	     23.74932257	     -9.55315457	     24.16125154	    -71.74481310	     54.46808830	     69.16351300	    -22.55515969	     56.06080994	    -24.99999983	     15.76539660	     -7.16862842	    -24.02663850	    -17.52022835	    -41.29153240	      3.48566555	     67.23433626	    -28.41918860	     -1.26571849	     70.86823795	     13.83839695	     17.50669526	    -17.07793529
      4.45000000	      1.36309960	      5.60335574	     11.73145930	     -0.11561800	      1.03171560	      0.03325357	      2.15103383	     10.12650721	     14.96291239	      5.90938902	     23.68990857	     -9.62522931	     25.54231617	    -71.49887680	     53.31172284	     70.50688130	    -17.90875119	     48.96436869	    -24.99999983	     16.06386604	     -7.61466854	    -24.45487147	    -16.98551452	    -41.05080192	      3.74091937	     67.41693294	    -27.52094420	     -0.87571973	     70.23191999	     12.47282334	     20.35727500	    -14.68527627
      4.46000000	      1.23281395	      5.53506528	     11.68583079	     -0.11514961	      1.03167565	      0.03306858	      2.03832846	     10.01258065	     15.37367346	      5.58975688	     24.37006597	     -9.81694570	     25.58572826	    -71.09228483	     52.83778729	     70.93927939	    -17.22435291	     45.03384999	    -24.99999983	     16.29455354	     -7.77550612	    -24.71430775	    -16.59552154	    -40.54466455	      3.94861995	     67.49753389	    -26.48424009	     -0.85217298	     69.04066675	     12.35088480	     20.24073031	    -14.43988043
      4.47000000	      1.20977419	      5.34890626	     11.79254655	     -0.11510471	      1.03139504	      0.03271856	      2.44729094	      9.84919718	     16.11776144	      5.47669145	     24.26001881	     -9.99937287	     26.21914422	    -70.45627015	     52.15379347	     71.53511532	    -15.88971676	     40.59242283	    -24.99999983	     16.68257153	     -8.12449196	    -25.20512095	    -15.96637794	    -39.90943470	      4.28739080	     67.16367640	    -25.73734745	     -0.56412920	     67.92736780	     11.40046597	     22.07844592	    -13.03408629
      4.48000000	      1.05458651	      5.25171501	     11.76635841	     -0.11458866	      1.03126013	      0.03233599	      2.38642994	      9.60332304	     16.60462198	      5.07366967	     24.86601710	    -10.18327095	     26.31511962	    -69.88427929	     51.78802562	     71.63547960	    -14.88495141	     36.51976996	    -24.99999983	     16.90153600	     -8.28907931	    -25.43041219	    -15.52779826	    -39.30780525	      4.48598432	     67.18906302	    -24.66060391	     -0.62766378	     66.42609331	     10.90487636	     22.83374620	    -12.16474504
      4.49000000	      0.97853994	      5.13026038	     11.76376137	     -0.11424468	      1.03128820	      0.03183212	      2.59769393	      9.20062342	     17.23304963	      4.69350156	     24.97654327	    -10.33476433	     26.58952483	    -69.01329819	     51.53100726	     71.09547683	    -14.94210078	     36.00742657	    -24.99999983	     17.16967306	     -8.84447284	    -25.74060106	    -14.78401031	    -38.81108811	      4.68818767	     67.40115187	    -23.94416022	     -0.83069502	     64.96219232	     10.98871261	     22.95810652	    -11.83843362
      4.50000000	      0.90242536	      4.88673036	     11.89736922	     -0.11403557	      1.03060699	      0.03123516	      3.01460557	      9.01654534	     18.22458370	      4.47396557	     25.15171773	    -10.62044830	     26.75738314	    -68.17998519	     51.41103212	     71.08059124	    -15.77320584	     31.73542574	    -24.99999983	     17.55433266	     -8.94431277	    -26.20843354	    -14.26672739	    -37.93253076	      5.04831909	     66.69812141	    -23.00042933	     -0.65447769	     63.15891883	     10.03294837	     24.47910784	    -10.80027137
      4.51000000	      0.79871189	      4.72469380	     11.90777895	     -0.11363552	      1.03011502	      0.03066191	      3.24432508	      8.64977424	     18.93187526	      4.10135539	     25.34361101	    -10.80579008	     27.00877495	    -67.22643764	     51.23650455	     70.65638666	    -15.69125738	     28.36826075	    -24.99999983	     17.89248676	     -9.22412187	    -26.61246414	    -13.64063065	    -37.15928657	      5.34596420	     66.38438732	    -22.09648868	     -0.68604385	     61.30376608	      9.27659321	     25.52585235	     -9.86259927
